<svg xmlns="http://www.w3.org/2000/svg" xmlns:xlink="http://www.w3.org/1999/xlink" version="1.1" style="" xml:space="preserve" width="300" height="101"><rect id="backgroundrect" width="100%" height="100%" x="0" y="0" fill="none" stroke="none"/>
<style type="text/css">
	.st0{fill:#B12028;}
	.st1{fill:#ffffff;}
</style>






<g class="currentLayer" style=""><title>Layer 1</title><path class="st0" d="M80.1,40.5L64.6,12.3c-0.6-1.1-1.7-1.7-2.8-1.7H53H35.4h-8.9c-1.2,0-2.3,0.7-2.8,1.7L8.4,40.5  c-0.5,0.9-0.5,2.1,0,3l15,28.2c0.6,1.1,1.6,1.7,2.8,1.7h12c0,0,3.8,6.1,4.9,7.9c0.9,1.6,2,1.8,2.9,1.8c0.9,0,5.3,0,5.3,0l-5.8-9.7  h3.6c1.2,0,2.3-0.7,2.9-1.8L66,43.9c0.5-1,0.4-2.1-0.1-3l-9.3-16.1c-0.6-1-1.6-1.6-2.8-1.6H34.3c-1.2,0-2.4,0.7-2.9,1.8L23,41.6  c-0.4,0.9-0.4,2,0.1,2.9l10.2,19.7h7.3L29.5,42.9l6.8-13.3H52l7.5,13L47.1,67h-19L14.9,42l13.6-25h6.9H53h6.8l13.8,25L57.2,73.5h5.1  c1.2,0,2.3-0.7,2.8-1.7l15-28.2C80.6,42.6,80.6,41.5,80.1,40.5" id="svg_1"/><path class="st1" d="M134.8,23c-0.8-3.4-2.7-6.6-5.6-8.7c-3.1-2.4-7.1-3.4-11-3.4c-2.3,0-4.7-0.1-7,0.3c-3.7,0.6-7.2,2.3-9.7,5.1  c-2.7,3-3.9,7-3.9,10.9c0,10,0,20,0,30c0,3.8,1.1,7.7,3.6,10.7c2.5,3,6.1,4.8,9.9,5.4c2.4,0.3,6.7,0.4,9.7,0.1  c1.9,3,3.4,5.6,3.9,6.2c0.2,0.4,1,1.3,2,1.3c2.2,0,4.1,0,6.3,0c0.6,0,1.3,0,1.3,0c-0.5-0.9-3.4-5.6-6.1-10.1  c1.3-0.8,2.5-1.9,3.5-3.1c2.4-2.9,3.5-6.7,3.5-10.4c0-8.9,0-17.8,0-26.7C135.3,27.9,135.4,25.4,134.8,23 M122.4,61.1  c-0.6-0.8-1.5-0.7-2-0.8c-2,0-3.9,0-5.9,0c-0.5,0-1.4,0-1.4,0c0.2,0.5,1.5,2.6,3.1,5.2c-1.7,0-3.4-0.2-5-0.7  c-2.9-1.4-4.9-4.6-4.9-7.8c0-10,0-20,0-29.9c0-3.9,2.8-7.4,6.6-8.4c1.7-0.4,3.6-0.2,5.3-0.3c4.4,0.1,8.2,4,8.3,8.3c0,10,0,20,0,29.9  c0.1,2.5-1,4.9-2.8,6.6C123.1,62.2,122.6,61.4,122.4,61.1" id="svg_2"/><path class="st1" d="M145.8,11.8c2-0.1,4,0,6-0.1c0.6,0,1.3-0.1,1.9,0.2c0.2,0.3,0.2,0.7,0.2,1.1c0,14.7,0,29.3,0,44  c-0.1,4.4,3.7,8.4,8.1,8.6c2.3,0,4.7,0.3,6.8-0.7c3.1-1.3,5.3-4.5,5.3-7.9c0-14.7,0-29.3,0-44c0-0.4,0-0.8,0.2-1.1  c0.4-0.3,0.9-0.2,1.4-0.3c2.1,0,4.2,0,6.3,0c0.7,0,0.8,0.8,0.8,1.3c0,14.7,0,29.3,0,44c0,4.1-1.4,8.3-4.3,11.3  c-3.1,3.3-7.7,4.9-12.2,5c-3.3,0.1-6.7,0.2-9.9-0.8c-3.5-1-6.8-3.3-8.7-6.5c-1.8-2.8-2.5-6.1-2.5-9.3c0-14.6,0-29.1,0-43.7  C145.2,12.6,145.2,11.9,145.8,11.8" id="svg_3"/><path class="st1" d="M195.9,13.1c0-0.5,0-1.3,0.7-1.3c1.9-0.1,3.9,0,5.8,0c0.4,0,1-0.1,1.3,0.3c0.4,0.5,0.5,1.1,0.8,1.7  c4.6,10.9,9.2,21.7,13.8,32.6c0.6,1.4,0.9,3,1.4,4.4c1-3.4,2.5-6.5,3.8-9.7c4-9.5,8-18.9,12-28.4c0.2-0.4,0.4-1,0.9-0.9  c2.1,0,4.2,0,6.3,0c0.6-0.1,1,0.5,0.9,1.1c0,19,0,38.1,0,57.1c0,0.7,0.1,1.5-0.1,2.1c-0.3,0.4-0.8,0.3-1.3,0.3c-2.2,0-4.4,0.1-6.6,0  c-0.5,0-0.7-0.6-0.7-1.1c0-4.4,0-8.8,0-13.2c0-8,0.3-15.9,0.7-23.9c0-0.7,0.3-1.5-0.1-2.2c-1,2.8-1.8,5.7-3.1,8.4  c-3.4,7.5-6.7,14.9-10.1,22.4c-0.2,0.3-0.3,0.9-0.8,0.9c-1.3,0.1-2.6,0.1-3.8,0c-0.5-0.3-0.7-0.9-0.9-1.4  c-2.8-6.2-5.6-12.5-8.4-18.7c-1.4-3.1-2.9-6.1-3.8-9.4c-0.2-0.7-0.3-1.6-0.9-2.1c0.2,6,0.6,12,0.7,18.1c0.1,6.8,0,13.6,0.1,20.3  c0,0.6,0.1,1.2-0.2,1.7c-0.4,0.3-0.9,0.2-1.4,0.2c-1.9,0-3.9,0-5.8,0c-0.4,0-1,0-1.2-0.5c-0.2-0.7-0.1-1.3-0.1-2  C195.9,51,195.9,32,195.9,13.1" id="svg_4"/><path class="st1" d="M258.8,11.8c3.2-0.2,6.4,0,9.6-0.1c7.8,0,15.6,0,23.4,0c0.5,0,1.2,0,1.2,0.7c0.1,2,0,4.1,0,6.1  c0.1,0.6-0.4,1-1,0.9c-7.9,0-15.8,0-23.6,0c-0.4,0-0.8,0-1.1,0.2c-0.4,0.4-0.3,1-0.3,1.5c0,5.2,0,10.4,0,15.7  c-0.1,0.5,0.3,1.1,0.9,1c6.6,0,13.2,0,19.8,0c0.4,0,1,0.2,1,0.7c0.1,1.6,0,3.2,0,4.9c0,0.6,0.1,1.3-0.2,1.9  c-0.3,0.2-0.7,0.2-1.1,0.2c-6.4,0-12.8,0-19.3,0c-0.5-0.1-1.2,0.2-1.1,0.9c-0.1,5.6,0,11.2,0,16.8c0,0.5-0.1,1.1,0.3,1.5  c0.3,0.2,0.7,0.2,1.1,0.2c7.8,0,15.6,0,23.4,0c0.5,0,1.2,0.1,1.2,0.7c0.1,2.1,0,4.1,0,6.2c0.1,0.7-0.7,0.9-1.2,0.8  c-10.8,0-21.6,0-32.5,0c-0.6,0.1-1.1-0.5-1-1.1c0-19.4,0-38.9,0-58.3C258.3,12.6,258.2,11.9,258.8,11.8" id="svg_5"/></g></svg>